<svg width="30" height="30" viewBox="0 0 30 30" fill="#467b7c" xmlns="http://www.w3.org/2000/svg">
  <rect x="3.125" y="3.12497" width="23.75" height="3.75" />
  <rect x="3.125" y="8.12498" width="23.75" height="1.5625" />
  <path d="M11.2013 13.0144V12.1794H13.3742V16.2215H11.1254C10.594 15.1208 9.78434 14.5705 8.69631 14.5705C8.03211 14.5705 7.48177 14.814 7.04529 15.3011C6.61514 15.7882 6.40007 16.3955 6.40007 17.1229C6.40007 17.9263 6.60565 18.5873 7.01683 19.106C7.43433 19.6184 7.98783 19.8746 8.67733 19.8746C9.17707 19.8746 9.6515 19.7355 10.1006 19.4571C10.5498 19.1788 10.9166 18.7866 11.2013 18.2805L13.6683 19.3717C13.1243 20.3965 12.4696 21.1556 11.7042 21.649C10.9388 22.1424 9.90769 22.3891 8.61091 22.3891C6.92827 22.3891 5.59354 21.9305 4.60672 21.0133C3.62623 20.0897 3.13599 18.8119 3.13599 17.1799C3.13599 16.2057 3.36055 15.3296 3.80968 14.5515C4.26513 13.7734 4.87873 13.163 5.65047 12.7202C6.42221 12.2711 7.26669 12.0465 8.18393 12.0465C9.234 12.0465 10.2398 12.3691 11.2013 13.0144Z" />
  <path d="M22.0753 13.4034V12.1794H26.886V14.5136H25.235V21.9621C25.235 23.5246 24.808 24.717 23.954 25.5393C23.1 26.3617 21.7843 26.7729 20.0067 26.7729C18.0394 26.7729 16.5719 26.4123 15.604 25.6911L17.1507 23.5942C17.9667 24.0939 18.7701 24.3438 19.5608 24.3438C20.225 24.3438 20.7374 24.2426 21.0979 24.0401C21.4648 23.844 21.7178 23.5372 21.857 23.1197C22.0025 22.7086 22.0753 22.1519 22.0753 21.4497V20.9089C21.0252 21.8388 20.0067 22.3037 19.0199 22.3037C18.2039 22.3037 17.4796 22.0886 16.847 21.6585C16.2208 21.222 15.7369 20.6147 15.3953 19.8367C15.0537 19.0586 14.8829 18.1667 14.8829 17.1609C14.8829 16.1741 15.0632 15.2916 15.4237 14.5136C15.7906 13.7355 16.3062 13.1314 16.9704 12.7012C17.6346 12.2648 18.3747 12.0465 19.1907 12.0465C20.3736 12.0465 21.3351 12.4988 22.0753 13.4034ZM20.0921 19.7228C20.6741 19.7228 21.1517 19.5014 21.5249 19.0586C21.9045 18.6095 22.0942 17.9896 22.0942 17.1988C22.0942 16.3955 21.9139 15.7629 21.5534 15.3011C21.1991 14.8393 20.7121 14.6084 20.0921 14.6084C19.4912 14.6084 19.0168 14.8457 18.6688 15.3201C18.3209 15.7945 18.147 16.4144 18.147 17.1799C18.147 17.9136 18.3209 18.5209 18.6688 19.0017C19.0168 19.4824 19.4912 19.7228 20.0921 19.7228Z" />
</svg>

